{"title":"BBC Proms 2012 - 45. From the New World","uid":7586073,"size":1201209166,"categoryP":"video","categoryS":"music_videos","magnet":"?xt=urn:btih:39ea0a6ebfb97f03017191708ddfba02c4957ceb&amp;dn=BBC+Proms+2012+-+45.+From+the+New+World&amp;tr=udp%3A%2F%2Ftracker.openbittorrent.com%3A80&amp;tr=udp%3A%2F%2Fopen.demonii.com%3A1337&amp;tr=udp%3A%2F%2Ftracker.coppersurfer.tk%3A6969&amp;tr=udp%3A%2F%2Fexodus.desync.com%3A6969","seeders":1,"leechers":0,"uploader":"deandominic","files":2,"time":1346409495,"description":"BBC Proms 2012 - 45. From the New World\n\nDvorak - Symphony No. 9 in E minor, 'From the New World' (45 mins)\nCopland - Fanfare for the Common Man (4 mins)\nJoan Tower - Fanfare for the Uncommon Woman (3 mins)\nVilla-Lobos - Momoprecoce (28 mins)\nGinastera - Estancia - suite (12 mins)\nEdu Lobo - Pe de Vento from Suite Popular Brasileira, orch. Nelson Ayres (3 mins)\n\nNelson Freire piano\nSao Paulo Symphony Orchestra\nMarin Alsop conductor\n\nMusic from both American hemispheres features tonight. First the masterpiece through which the Bohemian Dvorak, resident in New York, sought to establish an American musical identity, a symphony exuding nostalgia for his own native woods and fields.\n\nLater comes Copland's iconic Fanfare and highlights from Ginastera's best-known score. Joan Tower, whose childhood was spent partly in Bolivia, celebrates `women who take risks and are adventurous', while distinguished Brazilian pianist Nelson Freire returns to the Proms to play one of Villa-Lobos's most attractive compositions.\n\nVideo\nID                                       : 1\nFormat                                   : AVC\nFormat/Info                              : Advanced Video Codec\nFormat profile                           : &lt;a class=&quot;__cf_email__&quot; href=&quot;/cdn-cgi/l/email-protection&quot; data-cfemail=&quot;307d51595e707c031e00&quot;&gt;[email&amp;#160;protected]&lt;/a&gt;&lt;script data-cfhash='f9e31' type=&quot;text/javascript&quot;&gt;\n/* &lt;![CDATA[ */!function(){try{var t=&quot;currentScript&quot;in document?document.currentScript:function(){for(var t=document.getElementsByTagName(&quot;script&quot;),e=t.length;e--;)if(t[e].getAttribute(&quot;data-cfhash&quot;))return t[e]}();if(t&amp;&amp;t.previousSibling){var e,r,n,i,c=t.previousSibling,a=c.getAttribute(&quot;data-cfemail&quot;);if(a){for(e=&quot;&quot;,r=parseInt(a.substr(0,2),16),n=2;a.length-n;n+=2)i=parseInt(a.substr(n,2),16)^r,e+=String.fromCharCode(i);e=document.createTextNode(e),c.parentNode.replaceChild(e,c)}t.parentNode.removeChild(t);}}catch(u){}}()/* ]]&gt; */&lt;/script&gt;\nFormat settings, CABAC                   : Yes\nFormat settings, ReFrames                : 4 frames\nCodec ID                                 : avc1\nCodec ID/Info                            : Advanced Video Coding\nDuration                                 : 1h 46mn\nBit rate mode                            : Constant\nBit rate                                 : 1 404 Kbps\nWidth                                    : 832 pixels\nHeight                                   : 468 pixels\nDisplay aspect ratio                     : 16:9\nFrame rate mode                          : Constant\nFrame rate                               : 25.000 fps\nStandard                                 : PAL\nColor space                              : YUV\nChroma subsampling                       : 4:2:0\nBit depth                                : 8 bits\nScan type                                : Progressive\nBits/(Pixel*Frame)                       : 0.144\nStream size                              : 1.04 GiB (93%)\n\nAudio\nID                                       : 2\nFormat                                   : AAC\nFormat/Info                              : Advanced Audio Codec\nFormat profile                           : HE-AAC / LC\nCodec ID                                 : 40\nDuration                                 : 1h 46mn\nBit rate mode                            : Constant\nBit rate                                 : 96.0 Kbps\nChannel(s)                               : 2 channels\nChannel positions                        : Front: L R\nSampling rate                            : 48.0 KHz / 24.0 KHz\nCompression mode                         : Lossy\nStream size                              : 72.2 MiB (6%)\n","torrent":{"xt":"urn:btih:39ea0a6ebfb97f03017191708ddfba02c4957ceb","amp;dn":"BBC+Proms+2012+-+45.+From+the+New+World","amp;tr":["udp%3A%2F%2Ftracker.openbittorrent.com%3A80","udp%3A%2F%2Fopen.demonii.com%3A1337","udp%3A%2F%2Ftracker.coppersurfer.tk%3A6969","udp%3A%2F%2Fexodus.desync.com%3A6969"],"infoHash":"39ea0a6ebfb97f03017191708ddfba02c4957ceb","infoHashBuffer":{"type":"Buffer","data":[57,234,10,110,191,185,127,3,1,113,145,112,141,223,186,2,196,149,124,235]},"announce":[],"urlList":[]}}